#Polygon.obj
#Sunday, February 05, 2017
#10:10:43 AM
#-------

#Polygon
#-------
g Polygon
v 200 0 -1100
v 210 0 -1090
v 1100 0 -1100
v 1090 0 -1090
v 1100 0 -200
v 1090 0 -210
v 210 0 -210
v 200 0 -200

vn 0 1 0
vn 0 1 0
vn 0 0.9999999 0
vn 0 1 0
vn 0 1 0
vn 0 1 0
vn 0 1 0
vn 0 0.9999999 0


usemtl Default-Material
usemap Default-Material
f 1/1/1 2/2/2 3/3/3
f 2/2/2 4/4/4 3/3/3
f 4/4/4 5/5/5 3/3/3
f 4/4/4 6/6/6 5/5/5
f 6/6/6 7/7/7 5/5/5
f 7/7/7 8/8/8 5/5/5
f 8/8/8 7/7/7 2/2/2
f 1/1/1 8/8/8 2/2/2
